<svg width="20" height="20" viewBox="0 0 20 20" fill="none" xmlns="http://www.w3.org/2000/svg">
<path d="M4.51817 10L2.26187 12.2556L0 10L2.25631 7.74445L4.51817 10ZM10.0033 4.51667L13.8735 8.38667L16.1298 6.13111L10.0033 0L3.87018 6.13111L6.12649 8.38667L10.0033 4.51667ZM17.7437 7.74445L15.4874 10L17.7437 12.2556L20 10L17.7437 7.74445ZM10.0033 15.4833L6.13204 11.6133L3.87574 13.8689L10.0033 20L16.1298 13.8689L13.8735 11.6133L10.0033 15.4833ZM10.0033 12.2556L12.2596 10L10.0033 7.74445L7.74036 10L10.0033 12.2556Z" fill="#F0B90B"/>
</svg>
