<svg width="161" height="161" viewBox="0 0 161 161" fill="none" xmlns="http://www.w3.org/2000/svg">
<path fill-rule="evenodd" clip-rule="evenodd" d="M107.072 79.6338C107.085 72.2856 104.666 65.1397 100.193 59.3102C99.1323 57.9005 98.6714 56.129 98.9102 54.3812C99.1491 52.6333 100.068 51.0505 101.468 49.977C102.868 48.9034 104.635 48.4261 106.385 48.6488C108.135 48.8715 109.727 49.7762 110.813 51.1661C117.08 59.3341 120.47 69.3452 120.456 79.6405C120.456 90.7893 116.548 101.048 110.037 109.085C108.899 110.394 107.298 111.21 105.571 111.361C103.844 111.513 102.126 110.988 100.778 109.898C99.4299 108.807 98.5577 107.236 98.345 105.516C98.1323 103.795 98.5956 102.059 99.6374 100.673C104.462 94.7243 107.088 87.2934 107.072 79.6338ZM53.5363 79.6338C53.5363 71.9715 56.1061 64.9248 60.4291 59.2902C60.9815 58.5948 61.39 57.7965 61.6307 56.9417C61.8715 56.0869 61.9397 55.1927 61.8313 54.3113C61.723 53.4299 61.4403 52.5788 60.9998 51.8077C60.5592 51.0366 59.9696 50.361 59.2653 49.8201C58.561 49.2792 57.756 48.8839 56.8974 48.6572C56.0387 48.4305 55.1436 48.377 54.264 48.4998C53.3845 48.6226 52.5382 48.9192 51.7745 49.3724C51.0108 49.8256 50.3449 50.4262 49.8156 51.1393C43.5371 59.3102 40.1394 69.3293 40.1524 79.6338C40.1524 90.7826 44.0538 101.028 50.5517 109.079C51.6681 110.459 53.2873 111.34 55.053 111.527C56.8188 111.714 58.5865 111.192 59.9673 110.076C61.3482 108.959 62.2289 107.34 62.4159 105.574C62.6029 103.809 62.0808 102.041 60.9644 100.66C56.145 94.7135 53.5217 87.288 53.5363 79.6338Z" fill="white"/>
<path fill-rule="evenodd" clip-rule="evenodd" d="M66.9207 79.6333C66.9207 83.183 68.3308 86.5872 70.8408 89.0972C73.3508 91.6072 76.755 93.0173 80.3047 93.0173C83.8543 93.0173 87.2586 91.6072 89.7686 89.0972C92.2785 86.5872 93.6886 83.183 93.6886 79.6333C93.6886 76.0837 92.2785 72.6794 89.7686 70.1694C87.2586 67.6595 83.8543 66.2494 80.3047 66.2494C76.755 66.2494 73.3508 67.6595 70.8408 70.1694C68.3308 72.6794 66.9207 76.0837 66.9207 79.6333ZM133.841 79.6333C133.865 65.289 128.746 51.4114 119.413 40.5187C118.259 39.1698 117.688 37.4179 117.826 35.6484C117.965 33.8788 118.8 32.2366 120.149 31.083C121.498 29.9294 123.249 29.3588 125.019 29.4969C126.789 29.6349 128.431 30.4702 129.584 31.8191C140.991 45.1362 147.249 62.099 147.224 79.6333C147.224 98.304 140.265 115.355 128.822 128.331C128.24 128.99 127.534 129.528 126.744 129.914C125.954 130.301 125.096 130.528 124.219 130.582C123.342 130.637 122.462 130.518 121.63 130.233C120.799 129.948 120.032 129.502 119.372 128.92C118.713 128.338 118.175 127.632 117.789 126.842C117.403 126.053 117.176 125.195 117.121 124.317C117.066 123.44 117.185 122.56 117.47 121.729C117.756 120.897 118.202 120.13 118.784 119.471C128.507 108.481 133.864 94.3073 133.841 79.6333ZM26.7688 79.6333C26.7446 65.289 31.8635 51.4114 41.1967 40.5187C42.3504 39.1698 42.9209 37.4179 42.7829 35.6484C42.6448 33.8788 41.8095 32.2366 40.4606 31.083C39.1117 29.9294 37.3598 29.3588 35.5903 29.4969C33.8208 29.6349 32.1785 30.4702 31.0249 31.8191C19.6185 45.1362 13.3604 62.099 13.3848 79.6333C13.3848 98.2772 20.3177 115.308 31.7409 128.277C32.9141 129.609 34.5684 130.421 36.3398 130.533C38.1112 130.645 39.8547 130.049 41.1867 128.876C42.5187 127.703 43.3301 126.049 43.4424 124.277C43.5547 122.506 42.9588 120.763 41.7856 119.431C32.0858 108.445 26.7439 94.2882 26.7688 79.6333Z" fill="#C09CE6"/>
</svg>
