<svg width="24" height="24" viewBox="0 0 24 24" fill="none" xmlns="http://www.w3.org/2000/svg">
<path fill-rule="evenodd" clip-rule="evenodd" d="M15.4323 1.96016C13.899 -0.653387 10.1204 -0.653389 8.58694 1.96016L8.53125 2.05508C7.82382 3.2608 6.53421 4.00536 5.13631 4.01515L5.02626 4.01592C1.99614 4.03714 0.10686 7.30948 1.60354 9.94424L1.6579 10.0399C2.34837 11.2554 2.34837 12.7446 1.6579 13.9601L1.60354 14.0557C0.10686 16.6906 1.99614 19.9628 5.02626 19.9841L5.13631 19.9848C6.53419 19.9946 7.82382 20.7392 8.53125 21.9449L8.58694 22.0398C10.1204 24.6534 13.899 24.6534 15.4323 22.0398L15.488 21.9449C16.1955 20.7392 17.4851 19.9946 18.8829 19.9848L18.9931 19.9841C22.0232 19.9628 23.9125 16.6906 22.4158 14.0557L22.3614 13.9601C21.6709 12.7446 21.6709 11.2554 22.3614 10.0399L22.4158 9.94424C23.9125 7.30948 22.0232 4.03714 18.9931 4.01592L18.8829 4.01515C17.4851 4.00536 16.1955 3.2608 15.488 2.05508L15.4323 1.96016ZM12.0097 17.9525C15.2971 17.9525 17.9622 15.2875 17.9622 12C17.9622 8.7125 15.2971 6.04746 12.0097 6.04746C8.72217 6.04746 6.05712 8.7125 6.05712 12C6.05712 15.2875 8.72217 17.9525 12.0097 17.9525Z" fill="#D3ABFD"/>
</svg>
