<svg width="30" height="32" viewBox="0 0 30 32" fill="none" xmlns="http://www.w3.org/2000/svg">
<path fill-rule="evenodd" clip-rule="evenodd" d="M19.5765 2.61355C17.532 -0.871183 12.4938 -0.871185 10.4493 2.61355L10.375 2.74011C9.43178 4.34773 7.71229 5.34048 5.84844 5.35354L5.7017 5.35456C1.66154 5.38285 -0.8575 9.74597 1.13807 13.259L1.21055 13.3866C2.13117 15.0072 2.13117 16.9928 1.21055 18.6134L1.13807 18.741C-0.8575 22.2541 1.66154 26.6171 5.7017 26.6454L5.84844 26.6464C7.71228 26.6595 9.43178 27.6523 10.375 29.2598L10.4493 29.3864C12.4938 32.8712 17.532 32.8712 19.5765 29.3864L19.6507 29.2598C20.5941 27.6523 22.3134 26.6595 24.1773 26.6464L24.3242 26.6454C28.3643 26.6171 30.8834 22.2541 28.8877 18.741L28.8152 18.6134C27.8946 16.9928 27.8946 15.0072 28.8152 13.3866L28.8877 13.259C30.8834 9.74597 28.3643 5.38285 24.3242 5.35456L24.1773 5.35354C22.3134 5.34048 20.5941 4.34773 19.6507 2.74011L19.5765 2.61355ZM15.013 23.9366C19.3962 23.9366 22.9496 20.3834 22.9496 16C22.9496 11.6167 19.3962 8.06328 15.013 8.06328C10.6296 8.06328 7.07618 11.6167 7.07618 16C7.07618 20.3834 10.6296 23.9366 15.013 23.9366Z" fill="#D3ABFD"/>
</svg>
