<svg width="64" height="64" viewBox="0 0 64 64" fill="none" xmlns="http://www.w3.org/2000/svg">
<path fill-rule="evenodd" clip-rule="evenodd" d="M44.4004 31.9914C44.4064 28.5874 43.2859 25.2771 41.2136 22.5767C40.7223 21.9236 40.5088 21.103 40.6194 20.2933C40.7301 19.4836 41.156 18.7504 41.8044 18.2531C42.4529 17.7558 43.2715 17.5347 44.0822 17.6379C44.8929 17.741 45.63 18.1601 46.1333 18.804C49.0365 22.5877 50.607 27.2253 50.6004 31.9945C50.6004 37.1591 48.79 41.9114 45.7737 45.6345C45.2468 46.2406 44.5052 46.6185 43.7051 46.6887C42.9051 46.7589 42.109 46.5159 41.4846 46.0108C40.8602 45.5057 40.4561 44.778 40.3576 43.981C40.259 43.1839 40.4737 42.3797 40.9563 41.7378C43.1913 38.9819 44.4077 35.5396 44.4004 31.9914ZM19.6004 31.9914C19.6004 28.4419 20.7908 25.1776 22.7934 22.5674C23.0493 22.2453 23.2385 21.8754 23.35 21.4795C23.4616 21.0835 23.4932 20.6693 23.443 20.2609C23.3928 19.8526 23.2619 19.4584 23.0578 19.1012C22.8537 18.744 22.5806 18.431 22.2543 18.1804C21.928 17.9299 21.5551 17.7467 21.1574 17.6417C20.7596 17.5367 20.3449 17.512 19.9375 17.5688C19.5301 17.6257 19.138 17.7631 18.7842 17.9731C18.4304 18.183 18.122 18.4612 17.8768 18.7916C14.9684 22.5767 13.3944 27.2179 13.4004 31.9914C13.4004 37.156 15.2077 41.9021 18.2178 45.6314C18.7349 46.271 19.485 46.679 20.303 46.7657C21.121 46.8523 21.9399 46.6104 22.5795 46.0933C23.2192 45.5761 23.6272 44.8261 23.7138 44.0081C23.8004 43.1901 23.5585 42.3712 23.0414 41.7316C20.8088 38.9769 19.5936 35.5371 19.6004 31.9914Z" fill="white"/>
<path fill-rule="evenodd" clip-rule="evenodd" d="M25.8 31.9905C25.8 33.6349 26.4532 35.2119 27.6159 36.3746C28.7787 37.5373 30.3557 38.1905 32 38.1905C33.6443 38.1905 35.2213 37.5373 36.3841 36.3746C37.5468 35.2119 38.2 33.6349 38.2 31.9905C38.2 30.3462 37.5468 28.7692 36.3841 27.6065C35.2213 26.4437 33.6443 25.7905 32 25.7905C30.3557 25.7905 28.7787 26.4437 27.6159 27.6065C26.4532 28.7692 25.8 30.3462 25.8 31.9905ZM56.8 31.9905C56.8112 25.3457 54.4399 18.917 50.1164 13.871C49.582 13.2462 49.3177 12.4346 49.3816 11.6149C49.4456 10.7952 49.8325 10.0344 50.4574 9.50002C51.0822 8.96561 51.8938 8.70131 52.7135 8.76526C53.5332 8.82921 54.294 9.21617 54.8284 9.84102C60.1123 16.01 63.0113 23.8679 63 31.9905C63 40.6395 59.776 48.5383 54.475 54.5492C54.2055 54.8545 53.8785 55.1038 53.5127 55.2827C53.1468 55.4617 52.7493 55.5668 52.3429 55.5922C51.9364 55.6175 51.5289 55.5625 51.1437 55.4304C50.7585 55.2982 50.4031 55.0915 50.0978 54.822C49.7925 54.5525 49.5432 54.2255 49.3643 53.8597C49.1853 53.4939 49.0802 53.0964 49.0548 52.6899C49.0295 52.2835 49.0845 51.876 49.2166 51.4908C49.3488 51.1056 49.5555 50.7501 49.825 50.4448C54.3293 45.3538 56.8109 38.7881 56.8 31.9905ZM7.20003 31.9905C7.1888 25.3457 9.56011 18.917 13.8836 13.871C14.418 13.2462 14.6823 12.4346 14.6184 11.6149C14.5544 10.7952 14.1675 10.0344 13.5426 9.50002C12.9178 8.96561 12.1062 8.70131 11.2865 8.76526C10.4668 8.82921 9.70604 9.21617 9.17163 9.84102C3.88771 16.01 0.988703 23.8679 1.00003 31.9905C1.00003 40.6271 4.21163 48.5166 9.50332 54.5244C10.0468 55.1415 10.8131 55.5173 11.6337 55.5694C12.4543 55.6214 13.2619 55.3453 13.879 54.8019C14.496 54.2584 14.8719 53.4921 14.9239 52.6715C14.976 51.8509 14.6999 51.0433 14.1564 50.4262C9.66306 45.3373 7.1885 38.7793 7.20003 31.9905Z" fill="#C09CE6"/>
</svg>
